<svg xmlns="http://www.w3.org/2000/svg" width="3254.596" height="2687.628" viewBox="0 0 3254.596 2687.628">
  <defs>
    <style>
      .cls-1 {
        fill: #f9fbf0;
        fill-rule: evenodd;
      }
    </style>
  </defs>
  <path id="Ellipse_1_copy_5" data-name="Ellipse 1 copy 5" class="cls-1" d="M930.145,196.07c417.975,0,756.805,338.834,756.805,756.807s-338.83,756.813-756.8,756.813S173.337,1370.85,173.337,952.877,512.172,196.07,930.145,196.07Zm894-134c417.98,0,756.81,338.834,756.81,756.807s-338.83,756.813-756.81,756.813-756.8-338.84-756.8-756.813S1406.17,62.07,1824.14,62.07Zm847,154c417.98,0,756.81,338.834,756.81,756.807s-338.83,756.813-756.81,756.813-756.8-338.84-756.8-756.813S2253.17,216.07,2671.14,216.07Zm-4,883c417.98,0,756.81,338.83,756.81,756.81s-338.83,756.81-756.81,756.81-756.8-338.84-756.8-756.81S2249.17,1099.07,2667.14,1099.07Zm-811,137c417.98,0,756.81,338.83,756.81,756.81s-338.83,756.81-756.81,756.81-756.8-338.84-756.8-756.81S1438.17,1236.07,1856.14,1236.07Zm-901-153c417.975,0,756.805,338.83,756.805,756.81s-338.83,756.81-756.8,756.81-756.808-338.84-756.808-756.81S537.172,1083.07,955.145,1083.07Z" transform="translate(-173.344 -62.063)"/>
</svg>
